<svg xmlns="http://www.w3.org/2000/svg" xmlns:xlink="http://www.w3.org/1999/xlink" width="311.185" height="203.133" viewBox="0 0 233.389 152.35"><g data-name="Livello 1"><path d="M0 152.35h233.389V0H0z" fill="#192437"/><symbol id="a"><path d="M.441.182V.23H.343v.402H.298C.198.493.095.347 0 .212v-.03h.264V.107C.264.041.259.035.184.028V0h.234v.028C.347.035.343.04.343.106v.076h.098M.264.23H.062l.202.297V.23z"/></symbol><symbol id="b"><path d="M0 0z"/></symbol><symbol id="c"><path d="M.376.519.36.66C.339.664.284.679.228.679.096.679.022.595.022.506c0-.093.059-.141.164-.198C.274.26.315.229.315.152A.11.11 0 0 0 .199.037C.095.037.051.124.031.191L0 .183C.007.129.019.061.027.033A.417.417 0 0 1 .18 0C.309 0 .4.08.4.185.4.28.348.326.228.388.145.431.101.466.101.535c0 .052.027.109.105.109C.3.644.328.579.345.513l.031.006z"/></symbol><symbol id="d"><path d="M.499.167A.429.429 0 0 0 .445.075C.423.049.413.04.352.04H.259C.209.041.187.047.187.117v.199h.11c.072 0 .08-.01.093-.082h.031V.44H.39C.378.372.373.357.298.357H.187v.221C.187.607.189.61.22.61h.095C.375.61.398.603.414.57a.333.333 0 0 0 .03-.076l.03.005a5.688 5.688 0 0 0-.009.153A2.699 2.699 0 0 0 .32.65H.014V.622C.089.615.1.61.1.521V.126C.1.044.093.035 0 .028V0h.486c.01.03.037.133.043.159l-.03.008z"/></symbol><symbol id="e"><path d="M.66 0v.028C.589.036.58.044.548.131L.353.664.321.658.114.133C.079.043.063.036 0 .028V0h.231v.028C.149.038.135.046.157.111l.045.125h.216C.439.173.459.123.472.084.486.046.478.036.413.028V0H.66M.404.277H.217l.096.256.091-.256z"/></symbol><symbol id="f"><path d="M0 .334C0 .146.14 0 .332 0c.184 0 .33.134.33.349 0 .199-.153.33-.324.33C.127.679 0 .513 0 .334M.56.321C.56.128.469.038.348.038.206.038.104.175.104.361c0 .187.102.281.214.281C.449.642.56.531.56.321z"/></symbol><symbol id="g"><path d="M.71.659H.463V.631C.543.626.566.612.569.567.572.537.574.494.574.401V.156L.15.659H0V.631C.049.626.07.62.089.595.107.573.109.557.109.529V.274C.109.183.107.138.104.106.1.057.076.042.014.037V.009h.243v.028C.185.043.16.058.158.109a2.147 2.147 0 0 0-.005.164v.25L.581 0h.038v.401c0 .093.002.135.003.167.003.046.024.056.088.063v.028z"/></symbol><symbol id="h"><path d="M.652.317H.395V.288C.491.281.499.273.499.2V.118C.499.077.486.066.465.054A.2.2 0 0 0 .38.037C.186.037.104.195.104.354c0 .183.099.288.252.288.029 0 .07-.005.093-.013C.512.608.541.572.565.487l.03.006A2.41 2.41 0 0 0 .58.654C.549.659.474.679.372.679.172.679 0 .553 0 .342 0 .141.138 0 .365 0 .449 0 .53.022.592.036a.549.549 0 0 0-.006.095v.084c0 .059.004.065.066.073v.029z"/></symbol><symbol id="i"><path d="M.686.664h-.24V.636C.52.632.543.615.546.57.548.543.551.505.551.413V.311C.551.145.506.057.364.057c-.12 0-.189.08-.189.226v.25c0 .09.008.098.088.103v.028H0V.636C.08.629.088.623.088.533V.278c0-.117.029-.186.089-.232A.272.272 0 0 1 .341 0C.41 0 .478.015.525.064c.058.061.07.139.07.241v.108c0 .092.002.134.003.157C.6.616.623.632.686.636v.028z"/></symbol><symbol id="j"><path d="M.572.496C.567.554.563.626.563.673H.539C.524.654.516.65.488.65H.092C.064.65.053.649.038.673H.015A4.223 4.223 0 0 0 0 .493h.03C.043.53.051.554.063.574.08.604.096.61.151.61h.091V.123C.242.044.234.034.141.028V0h.291v.028C.337.034.329.045.329.123V.61h.1C.484.61.494.603.51.576A.38.38 0 0 0 .542.493l.03.003z"/></symbol><symbol id="k"><path d="M.696.65H.428V.622C.508.615.519.608.519.525V.366H.177v.159c0 .083.01.09.09.097V.65H0V.622C.081.614.09.609.09.525V.124C.09.04.081.037 0 .028V0h.267v.028c-.082.01-.09.013-.09.096v.2h.342v-.2C.519.04.511.038.428.028V0h.268v.028C.614.037.605.04.605.124v.401c0 .084.008.089.091.097V.65z"/></symbol><use xlink:href="#a" transform="matrix(14.5261 0 0 -14.5261 29.157 81.479)" fill="#fff"/><use xlink:href="#b" transform="matrix(14.5261 0 0 -14.5261 35.897 81.479)" fill="#fff"/><use xlink:href="#c" transform="matrix(14.5261 0 0 -14.5261 39.965 81.697)" fill="#fff"/><use xlink:href="#d" transform="matrix(14.5261 0 0 -14.5261 46.878 81.479)" fill="#fff"/><use xlink:href="#e" transform="matrix(14.5261 0 0 -14.5261 54.475 81.479)" fill="#fff"/><use xlink:href="#c" transform="matrix(14.5261 0 0 -14.5261 64.904 81.697)" fill="#fff"/><use xlink:href="#f" transform="matrix(14.5261 0 0 -14.5261 72.255 81.697)" fill="#fff"/><use xlink:href="#g" transform="matrix(14.5261 0 0 -14.5261 83.004 81.61)" fill="#fff"/><use xlink:href="#c" transform="matrix(14.5261 0 0 -14.5261 94.32 81.697)" fill="#fff"/><use xlink:href="#b" transform="matrix(14.5261 0 0 -14.5261 100.784 81.479)" fill="#fff"/><use xlink:href="#h" transform="matrix(14.5261 0 0 -14.5261 104.837 81.697)" fill="#fff"/><use xlink:href="#i" transform="matrix(14.5261 0 0 -14.5261 115.237 81.682)" fill="#fff"/><use xlink:href="#d" transform="matrix(14.5261 0 0 -14.5261 125.87 81.479)" fill="#fff"/><use xlink:href="#c" transform="matrix(14.5261 0 0 -14.5261 134.6 81.697)" fill="#fff"/><use xlink:href="#j" transform="matrix(14.5261 0 0 -14.5261 141.413 81.479)" fill="#fff"/><use xlink:href="#b" transform="matrix(14.5261 0 0 -14.5261 150.173 81.479)" fill="#fff"/><use xlink:href="#k" transform="matrix(14.5261 0 0 -14.5261 154.21 81.479)" fill="#fff"/><use xlink:href="#f" transform="matrix(14.5261 0 0 -14.5261 165.7 81.697)" fill="#fff"/><use xlink:href="#i" transform="matrix(14.5261 0 0 -14.5261 176.667 81.682)" fill="#fff"/><use xlink:href="#c" transform="matrix(14.5261 0 0 -14.5261 187.387 81.697)" fill="#fff"/><use xlink:href="#d" transform="matrix(14.5261 0 0 -14.5261 194.301 81.479)" fill="#fff"/><use xlink:href="#b" transform="matrix(14.5261 0 0 -14.5261 202.349 81.479)" fill="#fff"/><use xlink:href="#b" transform="matrix(14.5261 0 0 -14.5261 205.734 81.479)" fill="#fff"/><path d="M103.667 62.313H32.853v-1.186h70.814zM198.777 62.276h-70.814v-1.185h70.814z" fill="#90844b"/><symbol id="l"><path d="m.665 0-.21.316A.237.237 0 0 1 .59.53C.59.672.47.787.3.787H0L.001 0H.21v.342L.42 0h.245M.209.6h.085C.338.6.38.568.38.52.38.472.34.44.294.44L.21.442V.6z"/></symbol><symbol id="m"><path d="M.432 0c.245 0 .432.178.432.413a.416.416 0 0 1-.432.415A.416.416 0 0 1 0 .413C0 .178.187 0 .432 0m0 .2a.214.214 0 1 0 0 .43.214.214 0 1 0 0-.43z"/></symbol><symbol id="n"><path d="M.76.794.422.332.084.794H0V0h.209v.312L.421.013h.002l.212.299V0h.209v.794H.76z"/></symbol><symbol id="o"><path d="M.602 0h.23L.464.797h-.1L0 0h.229l.04.092h.293L.603 0M.334.245.416.43l.08-.186H.334z"/></symbol><symbol id="p"><path d="M0 0z"/></symbol><symbol id="q"><path d="M.587.787H0V.592h.189V0h.21v.592h.188v.195z"/></symbol><symbol id="r"><path d="M.287 0c.157 0 .297.093.297.243C.584.36.502.435.379.486.294.522.24.534.24.57c0 .027.03.049.074.049C.35.619.41.6.433.559l.12.116C.525.753.43.81.31.81.16.81.031.712.031.576.031.458.117.392.216.35.293.315.374.28.374.24.374.207.331.19.286.19a.192.192 0 0 0-.16.078L0 .144C.04.057.157 0 .287 0z"/></symbol><symbol id="s"><path d="M.51.593v.194H0V0h.51v.196H.207v.113h.25v.174h-.25v.11H.51z"/></symbol><symbol id="t"><path d="M.59.795.408.37.226.795H0L.361 0h.095L.82.795h-.23z"/></symbol><use xlink:href="#l" transform="matrix(8.1935 0 0 -5.9995 71.56 95.258)" fill="#90844b"/><use xlink:href="#m" transform="matrix(8.1935 0 0 -5.9995 77.344 95.378)" fill="#90844b"/><use xlink:href="#n" transform="matrix(8.1935 0 0 -5.9995 85.268 95.258)" fill="#90844b"/><use xlink:href="#o" transform="matrix(8.1935 0 0 -5.9995 92.822 95.258)" fill="#90844b"/><use xlink:href="#p" transform="matrix(8.1935 0 0 -5.9995 99.719 95.258)" fill="#90844b"/><use xlink:href="#q" transform="matrix(8.1935 0 0 -5.9995 102.386 95.258)" fill="#90844b"/><use xlink:href="#l" transform="matrix(8.1935 0 0 -5.9995 107.923 95.258)" fill="#90844b"/><use xlink:href="#o" transform="matrix(8.1935 0 0 -5.9995 113.51 95.258)" fill="#90844b"/><use xlink:href="#r" transform="matrix(8.1935 0 0 -5.9995 120.427 95.323)" fill="#90844b"/><use xlink:href="#q" transform="matrix(8.1935 0 0 -5.9995 125.607 95.258)" fill="#90844b"/><use xlink:href="#s" transform="matrix(8.1935 0 0 -5.9995 131.145 95.258)" fill="#90844b"/><use xlink:href="#t" transform="matrix(8.1935 0 0 -5.9995 135.803 95.308)" fill="#90844b"/><use xlink:href="#s" transform="matrix(8.1935 0 0 -5.9995 143.153 95.258)" fill="#90844b"/><use xlink:href="#l" transform="matrix(8.1935 0 0 -5.9995 148.282 95.258)" fill="#90844b"/><use xlink:href="#s" transform="matrix(8.1935 0 0 -5.9995 154.345 95.258)" fill="#90844b"/><path d="m120.34 58.758-.81.71-.437.384-.381.335-.252.22-.105-.226-.405-.866-1.821-3.907-2.331 5-.87-.763-.377-.331-2.081-1.827-.608-.533-.031-.031 1.093 6.117.268 1.5h9.875l.768-4.304.592-3.313-.031.03-.557.49z" fill="#ffc700"/><path d="m122.006 56.513-.015.015-.54.474-1.498 1.314-.81.71-.438.385-.044.039-.177-.383-1.822-3.908-.533-1.142-.533 1.142-2 4.29-.28-.245-.377-.332-2.081-1.826-.591-.518-.015-.015-1.336-1.373.337 1.886 1.092 6.118.268 1.499.087.485h10.859l.086-.485.769-4.304.59-3.313.338-1.885z" fill="#90844b"/><path d="m109.862 56.954.608.533 2.08 1.827.379.331.869.763 2.33-5 1.822 3.906.405.867.105.227.252-.22.38-.336.438-.384.81-.71 1.499-1.315.557-.489.03-.03-.591 3.311-.768 4.305h-9.875l-.268-1.5-1.093-6.117z" fill="#192437"/></g></svg>